<svg width="98" height="98" viewBox="0 0 98 98" fill="none" xmlns="http://www.w3.org/2000/svg">
<path d="M83.3878 14.6121C74.2025 5.42685 61.9899 0.368408 49 0.368408C36.01 0.368408 23.7974 5.42685 14.6121 14.6121C5.42685 23.7974 0.368408 36.01 0.368408 49C0.368408 61.9899 5.42704 74.2024 14.6121 83.3878C23.7972 92.5733 36.01 97.6316 49 97.6316C61.9899 97.6316 74.2025 92.5731 83.3878 83.3878C92.5731 74.2025 97.6316 61.9899 97.6316 49C97.6316 36.01 92.5729 23.7976 83.3878 14.6121ZM49 45.9605C56.5419 45.9605 62.6776 52.0963 62.6776 59.6381C62.6776 65.8837 58.4685 71.1614 52.7389 72.792C52.3273 72.9092 52.0395 73.2795 52.0395 73.7075V76.2694C52.0395 77.9061 50.7817 79.3144 49.1468 79.3913C47.4012 79.4734 45.9605 78.0826 45.9605 76.3553V73.7069C45.9605 73.2801 45.6744 72.9096 45.2639 72.7928C39.5588 71.1705 35.3605 65.9325 35.3225 59.7231C35.3125 58.0656 36.6157 56.6475 38.2725 56.6C39.9919 56.5506 41.4013 57.9298 41.4013 59.6381C41.4013 64.0078 45.1089 67.5279 49.5431 67.2178C53.2862 66.9562 56.3183 63.924 56.5797 60.1809C56.8893 55.7465 53.3694 52.0395 49 52.0395C41.4581 52.0395 35.3224 45.9037 35.3224 38.3618C35.3224 32.1163 39.5315 26.8386 45.2611 25.2079C45.6727 25.0907 45.9605 24.7205 45.9605 24.2925V21.7306C45.9605 20.0938 47.2183 18.6856 48.8531 18.6087C50.5988 18.5266 52.0395 19.9174 52.0395 21.6447V24.2931C52.0395 24.7199 52.3256 25.0903 52.7361 25.2072C58.4412 26.8295 62.6394 32.0675 62.6774 38.2769C62.6875 39.9344 61.3843 41.3525 59.7274 41.4C58.008 41.4494 56.5987 40.0702 56.5987 38.3618C56.5987 33.9922 52.8911 30.4721 48.4569 30.7821C44.7138 31.0437 41.6817 34.076 41.4203 37.8191C41.1107 42.2535 44.6306 45.9605 49 45.9605Z" fill="url(#paint0_linear)"/>
<defs>
<linearGradient id="paint0_linear" x1="49" y1="0.368408" x2="49" y2="97.6316" gradientUnits="userSpaceOnUse">
<stop stop-color="#FCE652"/>
<stop offset="1" stop-color="#F79B23"/>
</linearGradient>
</defs>
</svg>
