<svg width="24" height="24" viewBox="0 0 24 24" fill="none" xmlns="http://www.w3.org/2000/svg">
<path d="M17.9912 4.24125L12.3662 9.86625L14.1337 11.6337L19.7587 6.00875L23.25 9.5V0.75H14.5L17.9912 4.24125Z" fill="white"/>
<path d="M17.5274 13.8075C17.2872 13.5892 16.9715 13.4728 16.6471 13.4828C16.3227 13.4928 16.0149 13.6285 15.7886 13.8613L12.7974 16.9375C12.0774 16.8 10.6299 16.3488 9.13986 14.8625C7.64986 13.3713 7.19861 11.92 7.06486 11.205L10.1386 8.21251C10.3716 7.98642 10.5075 7.67854 10.5176 7.35402C10.5276 7.0295 10.411 6.71381 10.1924 6.47376L5.57361 1.39501C5.35492 1.15421 5.05096 1.00814 4.72631 0.987837C4.40165 0.967531 4.08186 1.07459 3.83486 1.28626L1.12361 3.61251C0.906932 3.82863 0.777439 4.11698 0.759864 4.42251C0.741114 4.73501 0.383614 12.1375 6.12361 17.88C11.1311 22.8875 17.4036 23.2538 19.1311 23.2538C19.3836 23.2538 19.5386 23.2463 19.5799 23.2438C19.8855 23.2267 20.174 23.0971 20.3899 22.88L22.7149 20.1663C22.9267 19.9194 23.034 19.5997 23.0139 19.2751C22.9938 18.9504 22.848 18.6464 22.6074 18.4275L17.5274 13.8075Z" fill="white"/>
</svg>
