<svg width="27" height="26" viewBox="0 0 27 26" fill="none" xmlns="http://www.w3.org/2000/svg">
<path d="M13.3296 25.9611C20.4212 25.9611 26.17 20.2122 26.17 13.1207C26.17 6.02911 20.4212 0.280273 13.3296 0.280273C6.2381 0.280273 0.489258 6.02911 0.489258 13.1207C0.489258 20.2122 6.2381 25.9611 13.3296 25.9611Z" fill="url(#paint0_linear)"/>
<path d="M6.36462 12.8421L18.7449 8.06868C19.3195 7.86109 19.8213 8.20885 19.6352 9.07772L19.6362 9.07665L17.5283 19.0076C17.372 19.7117 16.9537 19.8829 16.3683 19.5512L13.1583 17.1854L11.6099 18.677C11.4387 18.8482 11.2943 18.9926 10.9625 18.9926L11.1905 15.7258L17.1398 10.3511C17.3988 10.1231 17.0821 9.99473 16.7407 10.2216L9.38853 14.8505L6.21909 13.8618C5.53106 13.6435 5.51608 13.1738 6.36462 12.8421Z" fill="white"/>
<defs>
<linearGradient id="paint0_linear" x1="13.3296" y1="-7.20995" x2="13.3296" y2="25.9611" gradientUnits="userSpaceOnUse">
<stop stop-color="#FFD406"/>
<stop offset="1" stop-color="#F89C24"/>
</linearGradient>
</defs>
</svg>
