<svg width="28" height="30" viewBox="0 0 28 30" fill="none" xmlns="http://www.w3.org/2000/svg">
<path d="M27.2155 17.2109C28.0881 9.86614 26.7963 5.22919 24.4662 3.13189L24.4675 3.13067C20.7067 -0.450932 8.00595 -0.981045 3.5067 3.29154C1.48618 5.38152 0.774493 8.44886 0.6965 12.2462C0.618506 16.0447 0.52589 23.1604 7.15656 25.0907H7.16265L7.15656 28.0386C7.15656 28.0386 7.11146 29.2329 7.87434 29.473C8.74689 29.7557 9.14173 29.2012 11.8557 25.9596C16.3939 26.3532 19.8792 25.4514 20.2753 25.3198C21.1917 25.0127 26.3771 24.3266 27.2155 17.2109ZM12.3029 23.8855C12.3029 23.8855 9.43055 27.4671 8.53728 28.3969C8.24481 28.6991 7.9243 28.6711 7.92918 28.0715C7.92918 27.6779 7.95111 23.1774 7.95111 23.1774C2.32949 21.5664 2.66096 15.5073 2.72189 12.3376C2.78283 9.16664 3.3629 6.5697 5.07388 4.82094C9.02109 1.1199 20.1559 1.94737 22.9929 4.61377C26.4612 7.68842 25.2267 16.3749 25.234 16.6711C24.5211 22.6108 20.3192 22.9873 19.5466 23.2445C19.2163 23.3541 16.1514 24.1426 12.3029 23.8855Z" fill="url(#paint0_linear)"/>
<path d="M13.8922 5.5166C13.423 5.5166 13.423 6.24779 13.8922 6.25388C17.5323 6.28191 20.5301 8.81914 20.563 13.4732C20.563 13.9643 21.2821 13.9582 21.276 13.4671H21.2747C21.2357 8.45233 17.9625 5.54463 13.8922 5.5166Z" fill="url(#paint1_linear)"/>
<path d="M18.6802 12.702C18.6693 13.187 19.387 13.2102 19.3931 12.719C19.4528 9.95393 17.748 7.67628 14.5441 7.43621C14.075 7.40208 14.0262 8.13937 14.4942 8.17349C17.2727 8.38432 18.7363 10.2805 18.6802 12.702Z" fill="url(#paint2_linear)"/>
<path d="M17.9125 15.8471C17.3104 15.4986 16.6975 15.7155 16.444 16.058L15.9139 16.7441C15.6445 17.0926 15.1412 17.0463 15.1412 17.0463C11.4682 16.075 10.486 12.2314 10.486 12.2314C10.486 12.2314 10.4409 11.711 10.7773 11.432L11.4402 10.8836C11.7717 10.6203 11.9813 9.98665 11.6437 9.36392C10.7419 7.73459 10.1363 7.17279 9.82794 6.74139C9.50378 6.33558 9.01632 6.24418 8.50936 6.51837H8.49839C7.44426 7.13501 6.2902 8.28907 6.65945 9.47725C7.28949 10.73 8.44721 14.7235 12.1373 17.7409C13.8714 19.1679 16.6158 20.6303 17.7808 20.9679L17.7918 20.9849C18.9398 21.3676 20.0561 20.1685 20.652 19.0826V19.0741C20.9164 18.5489 20.8287 18.0517 20.4424 17.7263C19.7575 17.0585 18.7241 16.3212 17.9125 15.8471Z" fill="url(#paint3_linear)"/>
<path d="M15.0461 10.1565C16.2172 10.2248 16.7851 10.8365 16.846 12.093C16.868 12.5841 17.5809 12.5499 17.5589 12.0588C17.4809 10.4185 16.6254 9.50454 15.0851 9.41924C14.6159 9.39121 14.572 10.1285 15.0461 10.1565Z" fill="url(#paint4_linear)"/>
<defs>
<linearGradient id="paint0_linear" x1="15.7617" y1="-6.85337" x2="14.0843" y2="29.5375" gradientUnits="userSpaceOnUse">
<stop stop-color="#FFD406"/>
<stop offset="1" stop-color="#F89C24"/>
</linearGradient>
<linearGradient id="paint1_linear" x1="17.4081" y1="5.5166" x2="17.4081" y2="13.8385" gradientUnits="userSpaceOnUse">
<stop stop-color="#FFD406"/>
<stop offset="1" stop-color="#F89C24"/>
</linearGradient>
<linearGradient id="paint2_linear" x1="16.7807" y1="7.43506" x2="16.7807" y2="13.0767" gradientUnits="userSpaceOnUse">
<stop stop-color="#FFD406"/>
<stop offset="1" stop-color="#F89C24"/>
</linearGradient>
<linearGradient id="paint3_linear" x1="13.6965" y1="6.36133" x2="13.6965" y2="21.0577" gradientUnits="userSpaceOnUse">
<stop stop-color="#FFD406"/>
<stop offset="1" stop-color="#F89C24"/>
</linearGradient>
<linearGradient id="paint4_linear" x1="16.1353" y1="9.41846" x2="16.1353" y2="12.4447" gradientUnits="userSpaceOnUse">
<stop stop-color="#FFD406"/>
<stop offset="1" stop-color="#F89C24"/>
</linearGradient>
</defs>
</svg>
