<svg width="27" height="26" viewBox="0 0 27 26" fill="none" xmlns="http://www.w3.org/2000/svg">
<path d="M2.36076 2.02769C0.342681 4.12388 0.755714 6.35062 0.755714 13.1154C0.755714 18.733 -0.224436 24.3646 4.9053 25.6904C6.50714 26.1023 20.7 26.1023 22.2997 25.6882C24.4355 25.1372 26.1733 23.4048 26.4108 20.3841C26.444 19.9625 26.444 6.27571 26.4097 5.84556C26.1572 2.62797 24.1766 0.773607 21.5668 0.398025C20.9686 0.311353 20.8488 0.285672 17.7799 0.280322C6.89449 0.285672 4.50832 -0.199053 2.36076 2.02769Z" fill="url(#paint0_linear)"/>
<path d="M13.594 3.63855C9.70871 3.63855 6.01923 3.29293 4.61 6.90964C4.0279 8.4034 4.11244 10.3434 4.11244 13.1212C4.11244 15.5587 4.03432 17.8496 4.61 19.3316C6.01602 22.9505 9.73546 22.6038 13.5919 22.6038C17.3124 22.6038 21.1484 22.9912 22.5748 19.3316C23.1579 17.8229 23.0723 15.9118 23.0723 13.1212C23.0723 9.41672 23.2767 7.0252 21.4801 5.22968C19.6611 3.41063 17.2011 3.63855 13.5897 3.63855H13.594ZM12.7444 5.34739C20.8488 5.33455 21.8803 4.43358 21.3111 16.9498C21.1088 21.3765 17.7382 20.8907 13.5951 20.8907C6.04063 20.8907 5.82342 20.6745 5.82342 13.1169C5.82342 5.47151 6.42264 5.35167 12.7444 5.34525V5.34739ZM18.6552 6.92141C18.0271 6.92141 17.5178 7.43074 17.5178 8.05885C17.5178 8.68696 18.0271 9.1963 18.6552 9.1963C19.2834 9.1963 19.7927 8.68696 19.7927 8.05885C19.7927 7.43074 19.2834 6.92141 18.6552 6.92141ZM13.594 8.25146C10.905 8.25146 8.72535 10.4322 8.72535 13.1212C8.72535 15.8102 10.905 17.9898 13.594 17.9898C16.283 17.9898 18.4616 15.8102 18.4616 13.1212C18.4616 10.4322 16.283 8.25146 13.594 8.25146ZM13.594 9.9603C17.7725 9.9603 17.7778 16.2821 13.594 16.2821C9.41659 16.2821 9.41017 9.9603 13.594 9.9603Z" fill="white"/>
<defs>
<linearGradient id="paint0_linear" x1="13.5961" y1="-5.42648" x2="13.5582" y2="25.9991" gradientUnits="userSpaceOnUse">
<stop stop-color="#FFD406"/>
<stop offset="1" stop-color="#F89C24"/>
</linearGradient>
</defs>
</svg>
