<svg width="12" height="20" viewBox="0 0 12 20" fill="none" xmlns="http://www.w3.org/2000/svg">
<path d="M0.360902 10.8219L9.11278 19.6804C9.32331 19.8935 9.57895 20 9.8797 20C10.1805 20 10.4361 19.8935 10.6466 19.6804L11.6391 18.6758C11.8496 18.4627 11.9624 18.204 11.9774 17.8995C11.9925 17.5951 11.8947 17.3364 11.6842 17.1233L4.69173 10.0457L11.6842 2.96804C11.8947 2.75494 11.9925 2.49619 11.9774 2.19178C11.9624 1.88736 11.8496 1.62861 11.6391 1.41552L10.6466 0.410957C10.4361 0.197866 10.1805 0.0913239 9.8797 0.0913239C9.57895 0.0913239 9.32331 0.197866 9.11278 0.410957L0.360902 9.26941C0.1203 9.4825 0 9.74125 0 10.0457C0 10.3501 0.1203 10.6088 0.360902 10.8219Z" fill="white"/>
</svg>
