<svg width="24" height="24" viewBox="0 0 24 24" fill="none" xmlns="http://www.w3.org/2000/svg">
<path d="M17.6391 11.1781L8.88722 2.31963C8.67669 2.10654 8.42105 2 8.1203 2C7.81955 2 7.56391 2.10654 7.35338 2.31963L6.3609 3.3242C6.15038 3.53729 6.03759 3.79604 6.02256 4.10046C6.00752 4.40487 6.10526 4.66362 6.31579 4.87671L13.3083 11.9543L6.31579 19.032C6.10526 19.2451 6.00752 19.5038 6.02256 19.8082C6.03759 20.1126 6.15038 20.3714 6.3609 20.5845L7.35338 21.589C7.56391 21.8021 7.81955 21.9087 8.1203 21.9087C8.42105 21.9087 8.67669 21.8021 8.88722 21.589L17.6391 12.7306C17.8797 12.5175 18 12.2588 18 11.9543C18 11.6499 17.8797 11.3912 17.6391 11.1781Z" fill="white"/>
</svg>
