<svg width="98" height="98" viewBox="0 0 98 98" fill="none" xmlns="http://www.w3.org/2000/svg">
<path d="M85.0248 10.6173C82.4366 8.05901 79.034 6.48842 75.4081 6.17847C71.7822 5.86852 68.1623 6.83882 65.1775 8.92072C74.772 12.9154 82.6098 20.2275 87.2599 29.522C89.0549 26.5748 89.8101 23.1109 89.4049 19.6839C88.9997 16.257 87.4575 13.0647 85.0248 10.6173Z" fill="url(#paint0_linear)"/>
<path d="M31.0307 9.51293C28.0583 7.1522 24.3245 5.96114 20.5342 6.16455C16.7438 6.36796 13.159 7.95177 10.4563 10.6171C7.77591 13.3152 6.18843 16.9095 5.9995 20.708C5.81057 24.5065 7.03355 28.2406 9.43296 31.1914C13.7539 21.5776 21.433 13.8698 31.0307 9.51293Z" fill="url(#paint1_linear)"/>
<path d="M48.7499 11.0482C41.3061 11.0636 34.0335 13.2821 27.8486 17.4242C21.6637 21.5663 16.8434 27.4465 13.9951 34.3238C11.1469 41.2011 10.3982 48.7676 11.8434 56.0698C13.2886 63.3719 16.8631 70.0828 22.1163 75.3566L15.2492 82.2237C14.9998 82.4784 14.8031 82.7796 14.6702 83.1103C14.5373 83.4409 14.4708 83.7945 14.4746 84.1509C14.4783 84.5072 14.5522 84.8593 14.6921 85.1871C14.8319 85.5149 15.0349 85.8119 15.2896 86.0612C15.5442 86.3106 15.8454 86.5073 16.1761 86.6402C16.5067 86.7731 16.8603 86.8396 17.2167 86.8358C17.573 86.8321 17.9251 86.7582 18.2529 86.6183C18.5807 86.4785 18.8777 86.2755 19.1271 86.0209L26.2904 78.8575C32.8412 83.8147 40.8407 86.4792 49.0556 86.4403C57.2705 86.4013 65.2445 83.6611 71.7479 78.6421L79.1267 86.0209C79.6419 86.462 80.3046 86.6926 80.9823 86.6664C81.6601 86.6402 82.303 86.3592 82.7826 85.8796C83.2622 85.4 83.5432 84.7571 83.5693 84.0794C83.5955 83.4016 83.365 82.7389 82.9238 82.2237L75.6797 75.0873C80.859 69.7822 84.3592 63.0678 85.7424 55.7838C87.1256 48.4998 86.3305 40.9696 83.4565 34.1352C80.5824 27.3007 75.7571 21.4654 69.584 17.359C63.4109 13.2526 56.164 11.0575 48.7499 11.0482ZM68.8664 57.9869C68.5579 58.6284 68.008 59.1217 67.3368 59.3589C66.6656 59.596 65.9279 59.5578 65.2848 59.2526L46.0569 49.9349V26.3713C46.0569 25.6571 46.3406 24.9721 46.8456 24.4671C47.3507 23.962 48.0356 23.6783 48.7499 23.6783C49.4641 23.6783 50.1491 23.962 50.6541 24.4671C51.1591 24.9721 51.4428 25.6571 51.4428 26.3713V46.5687L67.6007 54.4052C67.9231 54.5531 68.2131 54.7633 68.454 55.0235C68.6949 55.2838 68.8821 55.5891 69.0047 55.9219C69.1273 56.2547 69.1829 56.6084 69.1685 56.9628C69.154 57.3172 69.0696 57.6652 68.9203 57.9869H68.8664Z" fill="url(#paint2_linear)"/>
<defs>
<linearGradient id="paint0_linear" x1="77.3446" y1="6.12189" x2="77.3446" y2="29.522" gradientUnits="userSpaceOnUse">
<stop stop-color="#FCE652"/>
<stop offset="1" stop-color="#F79B23"/>
</linearGradient>
<linearGradient id="paint1_linear" x1="18.5056" y1="6.14221" x2="18.5056" y2="31.1914" gradientUnits="userSpaceOnUse">
<stop stop-color="#FCE652"/>
<stop offset="1" stop-color="#F79B23"/>
</linearGradient>
<linearGradient id="paint2_linear" x1="48.7652" y1="11.0482" x2="48.7652" y2="86.836" gradientUnits="userSpaceOnUse">
<stop stop-color="#FCE652"/>
<stop offset="1" stop-color="#F79B23"/>
</linearGradient>
</defs>
</svg>
