<svg width="65" height="93" viewBox="0 0 65 93" fill="none" xmlns="http://www.w3.org/2000/svg">
<path d="M41.6506 68.9735C40.3989 68.9735 39.1654 68.7564 37.9831 68.3275L32.4403 66.316L26.9004 68.3381C25.7134 68.7711 24.4734 68.9907 23.2148 68.9907C19.3969 68.9907 15.8361 66.9355 13.922 63.6271L13.886 63.5648L13.9041 86.8272C13.9041 88.8328 15.008 90.6562 16.785 91.5857C17.5709 91.9967 18.4251 92.2001 19.2761 92.2001C20.3496 92.2001 21.4177 91.8766 22.3367 91.2388L32.342 84.2932L42.3471 91.2388C43.9945 92.3823 46.1218 92.5153 47.8988 91.5857C49.6758 90.6562 50.7798 88.8328 50.7798 86.8272V63.8838C48.8302 67.0317 45.3635 68.9735 41.6506 68.9735Z" fill="url(#paint0_linear)"/>
<path d="M62.3848 24.1043L56.3658 19.0632L54.9955 11.3325C54.5399 8.76299 52.3169 6.8997 49.708 6.8997C49.7064 6.8997 49.7044 6.8997 49.7028 6.8997L41.8517 6.90668L35.833 1.86619C33.8313 0.189607 30.9278 0.192113 28.929 1.87246L22.9194 6.9244L15.0683 6.93174C12.4573 6.93425 10.2347 8.80255 9.78381 11.3742L8.42747 19.1073L2.41784 24.1594C0.41922 25.8396 -0.0823594 28.6992 1.22529 30.9592L5.15701 37.755L3.80085 45.4878C3.34957 48.0596 4.80365 50.5727 7.2582 51.4636L14.6383 54.1421L18.57 60.9377C19.5542 62.6387 21.3436 63.6205 23.2146 63.6205C23.8293 63.6205 24.4529 63.5144 25.0598 63.2931L32.4349 60.6012L39.815 63.2795C42.2692 64.1695 44.9967 63.1746 46.3002 60.9123L50.2196 54.1093L57.5949 51.4174C60.0475 50.522 61.4969 48.0062 61.0411 45.4353L59.6707 37.7047L63.59 30.9017C64.8934 28.6394 64.3864 25.7807 62.3848 24.1043ZM32.4046 48.2776C23.8669 48.2776 16.9208 41.3316 16.9208 32.7938C16.9208 24.2561 23.8669 17.3101 32.4046 17.3101C40.9424 17.3101 47.8886 24.2561 47.8886 32.7938C47.8886 41.3316 40.9424 48.2776 32.4046 48.2776Z" fill="url(#paint1_linear)"/>
<path d="M41.7679 36.6721C43.9072 31.511 41.4576 25.5929 36.2965 23.4537C31.1354 21.3144 25.2174 23.764 23.0781 28.9251C20.9388 34.0862 23.3885 40.0042 28.5495 42.1435C33.7106 44.2828 39.6287 41.8331 41.7679 36.6721Z" fill="url(#paint2_linear)"/>
<defs>
<linearGradient id="paint0_linear" x1="32.3329" y1="63.5648" x2="32.3329" y2="92.2001" gradientUnits="userSpaceOnUse">
<stop stop-color="#FCE652"/>
<stop offset="1" stop-color="#F79B23"/>
</linearGradient>
<linearGradient id="paint1_linear" x1="32.4051" y1="0.610474" x2="32.4051" y2="63.6205" gradientUnits="userSpaceOnUse">
<stop stop-color="#FCE652"/>
<stop offset="1" stop-color="#F79B23"/>
</linearGradient>
<linearGradient id="paint2_linear" x1="23.0781" y1="28.9251" x2="41.7679" y2="36.6721" gradientUnits="userSpaceOnUse">
<stop stop-color="#FCE652"/>
<stop offset="1" stop-color="#F79B23"/>
</linearGradient>
</defs>
</svg>
