<svg width="94" height="94" viewBox="0 0 94 94" fill="none" xmlns="http://www.w3.org/2000/svg">
<path d="M89.279 78.0731C85.446 75.1199 75.2406 66.9634 65.7355 57.1617C59.4181 50.6432 56.7311 44.1174 51.9417 39.1775C47.6037 34.7035 43.6578 32.0961 43.6578 32.0961L42.5466 33.242L35.0398 25.5008L37.9395 22.51C38.1749 22.2643 38.3063 21.9372 38.3063 21.5969C38.3063 21.2567 38.1749 20.9296 37.9395 20.6839L37.3404 20.0661C37.3433 20.0632 45.8746 8.583 56.6616 11.7576C57.9147 12.1295 59.0318 12.7618 59.3486 12.4391C59.7798 11.9964 58.1375 10.2948 57.1753 9.31082C43.5291 -4.65232 28.4764 10.9083 28.4691 10.9155L27.9381 10.3671C27.8238 10.2478 27.6866 10.1528 27.5346 10.088C27.3827 10.0231 27.2192 9.98966 27.054 9.98966C26.8888 9.98966 26.7253 10.0231 26.5734 10.088C26.4214 10.1528 26.2842 10.2478 26.1699 10.3671L12.8015 24.1537C12.5661 24.3994 12.4346 24.7265 12.4346 25.0667C12.4346 25.407 12.5661 25.7341 12.8015 25.9798C12.8015 25.9798 14.438 28.8433 10.1463 29.3584C8.41864 29.5682 7.33632 29.9575 6.72281 30.4711C5.76513 31.437 4.81062 32.406 3.85928 33.3781C3.62386 33.6237 3.49243 33.9508 3.49243 34.2911C3.49243 34.6313 3.62386 34.9585 3.85928 35.2041L13.8635 45.5238C13.9779 45.6432 14.1153 45.7382 14.2674 45.803C14.4194 45.8679 14.583 45.9014 14.7484 45.9014C14.9137 45.9014 15.0773 45.8679 15.2294 45.803C15.3814 45.7382 15.5188 45.6432 15.6332 45.5238C15.6332 45.5238 18.3911 42.6444 18.4504 42.5691C18.9467 41.9354 19.3258 40.8212 19.5255 39.0386C20.029 34.6109 22.8014 36.3009 22.8014 36.3009C22.9157 36.4207 23.0531 36.516 23.2053 36.5812C23.3575 36.6463 23.5214 36.6799 23.6869 36.6799C23.8525 36.6799 24.0163 36.6463 24.1685 36.5812C24.3208 36.516 24.4582 36.4207 24.5725 36.3009L27.4722 33.3101L34.9761 41.0498L33.8648 42.1973C33.8648 42.1973 36.3941 46.2676 40.7321 50.7416C45.5201 55.68 51.8491 58.4509 58.1679 64.9695C67.6701 74.7712 75.5777 85.2949 78.4456 89.2494C79.5279 90.7383 79.7001 90.6009 81.0212 89.2364L85.1435 84.9852L89.263 80.7355C90.587 79.3667 90.723 79.1902 89.279 78.0731Z" fill="url(#paint0_linear)"/>
<path d="M49.8079 33.4301C51.0497 34.552 52.2547 35.714 53.4209 36.9144C55.7245 39.2903 57.6518 41.9483 59.5835 44.7858L72.5222 31.8457C74.9215 32.4321 77.4314 32.3906 79.81 31.7252C82.1886 31.0598 84.3557 29.7929 86.1025 28.0467C87.8492 26.3005 89.1168 24.1338 89.783 21.7555C90.4492 19.3771 90.4915 16.8672 89.9059 14.4677L78.1624 26.2112L69.828 23.9786L67.5939 15.6398L79.3345 3.9035C76.9357 3.31655 74.426 3.35842 72.0482 4.02507C69.6703 4.69171 67.5046 5.96058 65.7606 7.709C64.0136 9.45373 62.7455 11.6191 62.0787 13.9964C61.4119 16.3737 61.3688 18.8827 61.9536 21.2815L49.8079 33.4301Z" fill="url(#paint1_linear)"/>
<path d="M38.9282 51.8643C37.6874 50.5828 36.491 49.259 35.3412 47.8953L21.2812 61.9568C18.8825 61.3705 16.3731 61.4126 13.9954 62.0789C11.6177 62.7453 9.45194 64.0134 7.70725 65.7608C2.08872 71.375 2.09017 80.4822 7.70725 86.0978C9.04215 87.4337 10.6272 88.4934 12.3718 89.2165C14.1165 89.9395 15.9865 90.3117 17.875 90.3117C19.7635 90.3117 21.6336 89.9395 23.3782 89.2165C25.1228 88.4934 26.7079 87.4337 28.0428 86.0978C29.7899 84.352 31.058 82.1856 31.7248 79.8073C32.3916 77.4291 32.4346 74.9193 31.8497 72.5196L46.3251 58.0457C43.6627 56.1096 41.1638 54.1693 38.9282 51.8643ZM20.1091 84.2645L11.7732 82.0304L9.54055 73.6931L15.6438 67.5941L23.9783 69.8239L26.2109 78.1627L20.1091 84.2645Z" fill="url(#paint2_linear)"/>
<defs>
<linearGradient id="paint0_linear" x1="46.9011" y1="3.4939" x2="46.9011" y2="90.3137" gradientUnits="userSpaceOnUse">
<stop stop-color="#FCE652"/>
<stop offset="1" stop-color="#F79B23"/>
</linearGradient>
<linearGradient id="paint1_linear" x1="70.0619" y1="3.49219" x2="70.0619" y2="44.7858" gradientUnits="userSpaceOnUse">
<stop stop-color="#FCE652"/>
<stop offset="1" stop-color="#F79B23"/>
</linearGradient>
<linearGradient id="paint2_linear" x1="24.9095" y1="47.8953" x2="24.9095" y2="90.3117" gradientUnits="userSpaceOnUse">
<stop stop-color="#FCE652"/>
<stop offset="1" stop-color="#F79B23"/>
</linearGradient>
</defs>
</svg>
