<svg width="27" height="27" viewBox="0 0 27 27" fill="none" xmlns="http://www.w3.org/2000/svg">
<path d="M1.0896 25.743L2.85123 19.3118C1.76443 17.4298 1.19292 15.2941 1.19357 13.1068C1.19684 6.26367 6.76553 0.696289 13.6093 0.696289C16.9305 0.697597 20.0471 1.99037 22.3913 4.33595C24.7349 6.68217 26.0258 9.80001 26.0245 13.1166C26.0218 19.9598 20.4518 25.5278 13.6093 25.5278C13.6087 25.5278 13.6093 25.5278 13.6093 25.5278H13.6041C11.5266 25.5272 9.48448 25.006 7.67119 24.0166L1.0896 25.743Z" fill="white"/>
<path d="M1.08961 26.0697C1.00329 26.0697 0.919592 26.0357 0.85747 25.9729C0.775732 25.8899 0.74369 25.7689 0.774424 25.6571L2.50009 19.356C1.43029 17.4558 0.865971 15.2979 0.867279 13.1073C0.869895 6.083 6.58571 0.369141 13.6093 0.369141C17.0162 0.370448 20.2171 1.69723 22.6228 4.10492C25.0286 6.51327 26.3527 9.7135 26.3514 13.1164C26.3488 20.1401 20.6323 25.8546 13.6093 25.8546C11.524 25.8539 9.46095 25.3393 7.63 24.3656L1.17265 26.0586C1.14519 26.0664 1.11773 26.0697 1.08961 26.0697Z" fill="white"/>
<path d="M13.6095 0.695901C16.9307 0.697209 20.0472 1.98999 22.3915 4.33556C24.7351 6.68178 26.0259 9.79962 26.0246 13.1162C26.022 19.9594 20.452 25.5274 13.6095 25.5274H13.6042C11.5268 25.5268 9.4846 25.0056 7.67132 24.0162L1.08972 25.7426L2.85135 19.3114C1.76456 17.4294 1.19304 15.2938 1.1937 13.1064C1.19697 6.26328 6.76565 0.695901 13.6095 0.695901ZM13.6095 0.0419922C6.406 0.0419922 0.543057 5.90232 0.539787 13.1064C0.539133 15.3081 1.09496 17.4778 2.14906 19.3983L0.458703 25.5706C0.397235 25.7962 0.460011 26.0368 0.624796 26.2029C0.749038 26.3285 0.917093 26.3971 1.08972 26.3971C1.14531 26.3971 1.20089 26.3899 1.25582 26.3756L7.59023 24.7146C9.43949 25.6746 11.5124 26.1813 13.6042 26.182C20.8129 26.182 26.6759 20.321 26.6791 13.1169C26.6804 9.62568 25.3223 6.34306 22.8551 3.8739C20.3866 1.40408 17.1033 0.0433 13.6095 0.0419922Z" fill="#CFD8DC"/>
<path d="M20.9082 5.81795C18.9596 3.86799 16.3694 2.79362 13.6126 2.79297C7.92094 2.79297 3.29192 7.42003 3.28931 13.1077C3.28865 15.057 3.83401 16.9547 4.86719 18.5979L5.11306 18.9883L4.07007 22.7947L7.97587 21.7707L8.35318 21.9943C9.93694 22.9347 11.7535 23.4316 13.6054 23.4323H13.6093C19.297 23.4323 23.926 18.8046 23.928 13.1162C23.9286 10.36 22.8569 7.76791 20.9082 5.81795Z" fill="url(#paint0_linear)"/>
<path fill-rule="evenodd" clip-rule="evenodd" d="M10.5059 7.9189C10.2738 7.40231 10.0292 7.39185 9.80755 7.3827C9.62641 7.37485 9.41978 7.3755 9.21314 7.3755C9.00651 7.3755 8.6704 7.45332 8.38595 7.76392C8.1015 8.07453 7.2998 8.82456 7.2998 10.3508C7.2998 11.877 8.41145 13.3522 8.56643 13.5589C8.7214 13.7655 10.7126 16.9978 13.8657 18.2415C16.4859 19.2747 17.0195 19.0694 17.5884 19.0177C18.1573 18.966 19.4239 18.2677 19.6822 17.5431C19.9405 16.8186 19.9405 16.198 19.8634 16.0686C19.7855 15.9391 19.5789 15.8619 19.269 15.7063C18.959 15.5507 17.4334 14.8006 17.149 14.6973C16.8645 14.594 16.6579 14.5423 16.4506 14.8529C16.244 15.1629 15.6496 15.8619 15.4684 16.0686C15.2873 16.2759 15.1062 16.302 14.7962 16.1464C14.4863 15.9908 13.4871 15.6638 12.3016 14.6071C11.3795 13.7851 10.757 12.7696 10.5759 12.459C10.3948 12.149 10.5563 11.981 10.7119 11.826C10.8512 11.6867 11.0219 11.4637 11.1775 11.2826C11.3325 11.1015 11.3841 10.972 11.4874 10.7654C11.5908 10.5581 11.5391 10.3769 11.4613 10.222C11.3848 10.0663 10.7819 8.53227 10.5059 7.9189Z" fill="white"/>
<defs>
<linearGradient id="paint0_linear" x1="13.6002" y1="-1.50318" x2="13.6086" y2="23.4323" gradientUnits="userSpaceOnUse">
<stop stop-color="#FFD406"/>
<stop offset="1" stop-color="#F89C24"/>
</linearGradient>
</defs>
</svg>
