<svg width="26" height="26" viewBox="0 0 26 26" fill="none" xmlns="http://www.w3.org/2000/svg">
<path d="M25.6808 22.114C25.6808 24.0843 24.0843 25.6808 22.114 25.6808H3.56678C1.5972 25.6808 0 24.0843 0 22.114V3.56678C0 1.59649 1.5972 0 3.56678 0H22.114C24.0843 0 25.6808 1.59649 25.6808 3.56678V22.114Z" fill="url(#paint0_linear)"/>
<path d="M21.6359 8.86956C21.6687 8.76184 21.6844 8.66197 21.6801 8.5728C21.6694 8.31457 21.4918 8.12695 21.0738 8.12695H19.2062C18.7347 8.12695 18.5171 8.4123 18.3901 8.69835C18.3901 8.69835 17.2259 11.0945 15.8841 12.6746C15.449 13.1319 15.2278 13.1204 14.9924 13.1204C14.8661 13.1204 14.5473 12.9678 14.5473 12.549V8.8503C14.5473 8.35523 14.4239 8.12695 14.0251 8.12695H10.7087C10.4184 8.12695 10.2671 8.35523 10.2671 8.58421C10.2671 9.06002 10.9077 9.17416 10.9805 10.5074V13.0919C10.9805 13.7197 10.8714 13.8338 10.6359 13.8338C10.0011 13.8338 8.75126 11.6937 7.9145 8.88882C7.73331 8.33668 7.55211 8.12695 7.08059 8.12695H5.19519C4.6509 8.12695 4.5603 8.39375 4.5603 8.67909C4.5603 9.19342 4.98832 11.9741 7.32455 15.1713C9.01877 17.4897 11.2509 18.8273 13.2269 18.8273C14.4239 18.8273 14.5466 18.5227 14.5466 18.0469V15.9268C14.5473 15.3554 14.6778 15.2605 15.0587 15.2605C15.3305 15.2605 15.8848 15.4388 16.9548 16.6872C18.189 18.1268 18.4129 18.8273 19.1206 18.8273H20.9882C21.4219 18.8273 21.6708 18.6454 21.6808 18.2923C21.683 18.2024 21.6701 18.1018 21.6409 17.9898C21.5025 17.5789 20.8676 16.5745 20.0758 15.6172C19.6371 15.0872 19.2041 14.5621 19.005 14.2768C18.8716 14.0906 18.821 13.9593 18.8274 13.8338C18.8338 13.7018 18.9023 13.5763 19.005 13.4008C18.9865 13.4008 21.4005 10.0116 21.6359 8.86956Z" fill="white"/>
<defs>
<linearGradient id="paint0_linear" x1="12.8404" y1="-4.63681" x2="12.8404" y2="25.6808" gradientUnits="userSpaceOnUse">
<stop stop-color="#FFD406"/>
<stop offset="1" stop-color="#F89C24"/>
</linearGradient>
</defs>
</svg>
